<?xml version="1.0" standalone="no"?>
<!DOCTYPE svg PUBLIC "-//W3C//DTD SVG 20010904//EN"
 "http://www.w3.org/TR/2001/REC-SVG-20010904/DTD/svg10.dtd">
<svg version="1.0" xmlns="http://www.w3.org/2000/svg"
 width="450.000000pt" height="526.000000pt" viewBox="0 0 450.000000 526.000000"
 preserveAspectRatio="xMidYMid meet">
<metadata>
Created by potrace 1.10, written by Peter Selinger 2001-2011
</metadata>
<g transform="translate(0.000000,526.000000) scale(0.100000,-0.100000)"
fill="#000000" stroke="none">
<path d="M4269 5206 c-31 -11 -69 -32 -239 -131 -173 -100 -327 -189 -363
-210 -23 -13 -125 -71 -227 -130 -102 -59 -200 -116 -218 -126 -18 -11 -63
-37 -100 -58 -66 -37 -166 -95 -359 -208 -54 -31 -136 -78 -184 -104 -100 -57
-127 -83 -140 -136 -5 -21 -9 -493 -9 -1051 0 -838 2 -1018 14 -1046 16 -38
75 -71 111 -62 20 5 341 184 370 206 6 4 31 19 57 33 25 14 106 60 180 103 73
42 239 138 368 212 129 75 336 194 460 265 124 72 252 145 285 164 33 19 71
44 84 56 53 49 51 7 51 1126 l0 1040 -22 26 c-31 34 -75 46 -119 31z"/>
<path d="M555 4165 l-25 -24 0 -723 c0 -830 -9 -757 101 -819 35 -20 107 -60
159 -91 52 -30 169 -98 260 -150 91 -52 210 -121 265 -153 381 -221 499 -285
521 -285 14 0 36 11 49 25 l25 24 0 716 c0 760 1 745 -46 786 -11 9 -143 88
-294 174 -151 87 -318 183 -370 213 -464 270 -576 332 -598 332 -13 0 -34 -11
-47 -25z"/>
<path d="M774 1855 c-17 -11 -168 -99 -444 -257 -280 -161 -280 -161 -280
-194 0 -18 16 -32 78 -67 42 -24 106 -61 142 -82 36 -21 85 -49 110 -62 25
-14 50 -29 55 -33 14 -11 345 -200 372 -213 18 -8 36 -1 105 39 46 26 137 79
203 117 66 39 194 112 285 164 91 52 173 102 183 110 35 33 20 59 -63 105 -25
14 -72 41 -105 60 -62 36 -355 205 -458 264 -31 18 -67 40 -79 49 -28 19 -77
19 -104 0z"/>
<path d="M3000 1586 c-41 -24 -119 -69 -173 -101 -128 -74 -128 -79 18 -163
61 -35 136 -80 168 -99 71 -43 103 -44 164 -6 26 17 100 60 165 97 113 65 133
82 122 109 -7 20 -336 207 -364 207 -14 0 -59 -20 -100 -44z"/>
<path d="M1837 916 c-10 -8 -119 -72 -242 -142 -154 -88 -225 -134 -229 -148
-3 -12 -6 -145 -6 -297 0 -311 1 -315 62 -283 100 52 465 268 476 282 9 12 12
84 10 307 l-3 290 -25 2 c-14 2 -33 -3 -43 -11z"/>
<path d="M2442 918 c-15 -15 -17 -400 -2 -428 5 -10 36 -33 67 -50 32 -18 74
-42 93 -53 19 -11 69 -39 111 -63 129 -75 129 -75 129 182 l0 203 -32 24 c-42
31 -332 197 -345 197 -5 0 -14 -5 -21 -12z"/>
</g>
</svg>
